<svg width="787" height="724" viewBox="0 0 787 724" fill="none" xmlns="http://www.w3.org/2000/svg">
<g filter="url(#filter0_d_1342_22)">
<path fill-rule="evenodd" clip-rule="evenodd" d="M81.8496 637.989V300.643H133.749V637.989C133.749 644.871 136.483 651.472 141.349 656.338C146.216 661.205 152.816 663.939 159.699 663.939H626.793C633.675 663.939 640.276 661.205 645.142 656.338C650.009 651.472 652.743 644.871 652.743 637.989V300.643H704.642V637.989C704.642 658.636 696.44 678.437 681.841 693.037C667.241 707.636 647.44 715.838 626.793 715.838H159.699C139.052 715.838 119.251 707.636 104.651 693.037C90.0515 678.437 81.8496 658.636 81.8496 637.989ZM652.743 67.0958V248.744L548.944 144.945V67.0958C548.944 60.2135 551.678 53.6131 556.545 48.7466C561.411 43.8801 568.012 41.1461 574.894 41.1461H626.793C633.675 41.1461 640.276 43.8801 645.142 48.7466C650.009 53.6131 652.743 60.2135 652.743 67.0958Z" fill="#02BD54"/>
<path fill-rule="evenodd" clip-rule="evenodd" d="M356.585 15.1954C366.318 5.46581 379.516 0 393.278 0C407.04 0 420.238 5.46581 429.971 15.1954L774.946 360.119C779.819 364.991 782.556 371.6 782.556 378.491C782.556 385.382 779.819 391.991 774.946 396.864C770.074 401.736 763.465 404.474 756.574 404.474C749.683 404.474 743.074 401.736 738.202 396.864L393.278 51.8883L48.3549 396.864C43.4822 401.736 36.8735 404.474 29.9825 404.474C23.0915 404.474 16.4828 401.736 11.6101 396.864C6.73743 391.991 4 385.382 4 378.491C4 371.6 6.73743 364.991 11.6101 360.119L356.585 15.1954Z" fill="#02BD54"/>
<path d="M393 30.5L100 313V585.5L132.5 682.5H629L678 646L695 313L393 30.5Z" fill="#02BD54"/>
<path d="M535 608.111C535 629.588 520.871 647 503.444 647H282.556C265.129 647 251 629.588 251 608.111V335.889C251 314.412 265.129 297 282.556 297H503.444C520.871 297 535 314.412 535 335.889V608.111Z" fill="white"/>
<path d="M305.11 395.851C303.603 391.933 303 388.919 303 384.7C303 372.042 314.151 363 326.207 363C336.464 363 342.793 369.631 346.701 377.768L393.426 503.165L440.161 377.768C444.069 369.631 450.399 363 460.646 363C472.701 363 483.853 372.042 483.853 384.7C483.853 388.919 483.269 391.933 481.743 395.851L415.739 563.764C411.811 573.408 406.687 581.244 393.426 581.244C380.165 581.244 375.042 573.408 371.114 563.764L305.11 395.851Z" fill="#02BD54"/>
<circle cx="507" cy="472" r="15" fill="#02BD54"/>
</g>
<defs>
<filter id="filter0_d_1342_22" x="0" y="0" width="786.557" height="723.838" filterUnits="userSpaceOnUse" color-interpolation-filters="sRGB">
<feFlood flood-opacity="0" result="BackgroundImageFix"/>
<feColorMatrix in="SourceAlpha" type="matrix" values="0 0 0 0 0 0 0 0 0 0 0 0 0 0 0 0 0 0 127 0" result="hardAlpha"/>
<feOffset dy="4"/>
<feGaussianBlur stdDeviation="2"/>
<feComposite in2="hardAlpha" operator="out"/>
<feColorMatrix type="matrix" values="0 0 0 0 0 0 0 0 0 0 0 0 0 0 0 0 0 0 0.25 0"/>
<feBlend mode="normal" in2="BackgroundImageFix" result="effect1_dropShadow_1342_22"/>
<feBlend mode="normal" in="SourceGraphic" in2="effect1_dropShadow_1342_22" result="shape"/>
</filter>
</defs>
</svg>
